<?xml version="1.0" encoding="UTF-8" standalone="no"?>
<svg
   xmlns:dc="http://purl.org/dc/elements/1.1/"
   xmlns:cc="http://creativecommons.org/ns#"
   xmlns:rdf="http://www.w3.org/1999/02/22-rdf-syntax-ns#"
   xmlns:svg="http://www.w3.org/2000/svg"
   xmlns="http://www.w3.org/2000/svg"
   xmlns:sodipodi="http://sodipodi.sourceforge.net/DTD/sodipodi-0.dtd"
   xmlns:inkscape="http://www.inkscape.org/namespaces/inkscape"
   version="1.1"
   id="レイヤー_1"
   x="0px"
   y="0px"
   viewBox="0 0 340.2 340.20002"
   xml:space="preserve"
   sodipodi:docname="MIERUNE_logo03.svg"
   width="340.20001"
   height="340.20001"
   inkscape:version="1.0.2 (e86c8708, 2021-01-15)"><metadata
   id="metadata114"><rdf:RDF><cc:Work
       rdf:about=""><dc:format>image/svg+xml</dc:format><dc:type
         rdf:resource="http://purl.org/dc/dcmitype/StillImage" /><dc:title></dc:title></cc:Work></rdf:RDF></metadata><defs
   id="defs112" /><sodipodi:namedview
   pagecolor="#ffffff"
   bordercolor="#666666"
   borderopacity="1"
   objecttolerance="10"
   gridtolerance="10"
   guidetolerance="10"
   inkscape:pageopacity="0"
   inkscape:pageshadow="2"
   inkscape:window-width="1326"
   inkscape:window-height="934"
   id="namedview110"
   showgrid="false"
   fit-margin-top="0"
   fit-margin-left="0"
   fit-margin-right="0"
   fit-margin-bottom="0"
   inkscape:zoom="1.2346716"
   inkscape:cx="169.34999"
   inkscape:cy="199.8175"
   inkscape:window-x="470"
   inkscape:window-y="60"
   inkscape:window-maximized="0"
   inkscape:current-layer="レイヤー_1" />
<style
   type="text/css"
   id="style81">
	.st0{fill:#005773;}
	.st1{fill:#FFFFFF;}
</style>
<circle
   class="st0"
   cx="170.10001"
   cy="170.10001"
   r="170.10001"
   id="circle83" />
<g
   id="g107"
   transform="translate(-251.60001,-127.79999)">
	<g
   id="g89">
		<path
   class="st1"
   d="m 449.6,305.6 c -9.3,-0.5 -18.6,-0.7 -27.8,-0.7 -9.2,0 -18.5,0.3 -27.8,0.7 -2.6,0.1 -5.1,0.3 -7.7,0.4 0.4,-5.6 0.8,-11.2 1,-16.8 0.3,-6 0.5,-11.9 0.5,-17.9 0,-2.6 0.1,-5.2 0.1,-7.8 0,-2.6 0,-5.2 -0.1,-7.8 -0.1,-5.9 -0.3,-11.9 -0.5,-17.9 -0.3,-5.6 -0.6,-11.2 -1,-16.8 -0.5,-6 -1,-12 -1.7,-18 -6.1,-0.4 -12.1,-0.9 -18.2,-1.6 0.7,6 1.3,12.1 1.8,18.1 1.2,14.7 1.8,29.4 1.8,43.9 0,14.6 -0.6,29.3 -1.8,43.9 -0.2,2.1 -0.4,4.2 -0.6,6.3 -0.4,3.9 -0.8,7.9 -1.2,11.8 6,-0.6 12.1,-1.1 18.2,-1.6 12.4,-0.9 24.9,-1.3 37.2,-1.3 9.8,0 19.6,0.3 29.5,0.8 -0.6,-5.7 -1.1,-11.4 -1.6,-17 -0.1,-0.1 -0.1,-0.4 -0.1,-0.7 z"
   id="path85" />
		<path
   class="st1"
   d="m 473.5,263.5 c 0,-14.6 0.6,-29.3 1.8,-43.9 0.2,-2.1 0.4,-4.2 0.6,-6.3 0.4,-3.9 0.8,-7.9 1.2,-11.8 -6,0.6 -12.1,1.1 -18.2,1.6 -12.4,0.9 -24.9,1.3 -37.2,1.3 -9.8,0 -19.6,-0.3 -29.5,-0.8 0.6,5.7 1.2,11.4 1.6,17 0,0.3 0,0.7 0.1,1 9.3,0.5 18.6,0.7 27.8,0.7 9.2,0 18.5,-0.3 27.8,-0.7 2.6,-0.1 5.1,-0.3 7.7,-0.4 -0.4,5.6 -0.8,11.2 -1,16.8 h -7.7 -37.4 -16.3 c 0.3,5.9 0.5,11.9 0.5,17.8 0,0 0,0.1 0,0.1 h 16.1 36.6 7.7 c 0,2.6 -0.1,5.2 -0.1,7.8 0,2.6 0,5.2 0.1,7.8 H 448 395.4 c 0,0 0,0.1 0,0.1 -0.1,5.8 -0.3,11.8 -0.5,17.8 h 53.7 7.7 c 0.3,5.6 0.6,11.2 1,16.8 0.5,6 1,12 1.7,18 6.1,0.4 12.1,0.9 18.2,1.6 -0.7,-6 -1.3,-12.1 -1.8,-18.1 -1.3,-14.9 -1.9,-29.6 -1.9,-44.2 z"
   id="path87" />
	</g>
	<g
   id="g105">
		<path
   class="st1"
   d="m 460.1,378.7 c -0.6,1.2 -1.3,2.3 -2.3,3.1 -1,0.9 -2.1,1.5 -3.4,2 -1.3,0.5 -2.7,0.7 -4.1,0.7 -1.5,0 -2.8,-0.2 -4.1,-0.7 -1.3,-0.5 -2.4,-1.1 -3.3,-2 -1,-0.9 -1.7,-1.9 -2.3,-3.1 -0.5,-1.2 -0.8,-2.6 -0.8,-4.1 v -18.4 h 6.8 v 18.2 c 0,1.3 0.3,2.3 1,3 0.7,0.7 1.5,1.1 2.7,1.1 1.1,0 2.1,-0.4 2.7,-1.1 0.7,-0.7 1,-1.7 1,-3 v -18.2 h 6.8 v 18.4 c 0.1,1.5 -0.2,2.9 -0.7,4.1 z"
   id="path91" />
		<path
   class="st1"
   d="m 344.1,356.2 h -7.4 l -6.3,12.3 -6.3,-12.3 h -7.4 c 0.7,4.5 1,9.2 1,13.9 0,4.7 -0.4,9.4 -1,13.9 h 7.5 v -13.3 l 3.9,6.9 h 4.4 l 3.9,-6.9 V 384 h 7.5 c -0.7,-4.5 -1,-9.2 -1,-13.9 0.2,-4.7 0.6,-9.4 1.2,-13.9 z"
   id="path93" />
		<path
   class="st1"
   d="m 364.2,356.2 h -8.6 c 0.7,4.5 1,9.2 1,13.9 0,4.7 -0.4,9.4 -1,13.9 h 8.6 c -0.7,-4.5 -1,-9.2 -1,-13.9 0,-4.7 0.4,-9.4 1,-13.9 z"
   id="path95" />
		<path
   class="st1"
   d="m 376.8,370.1 c 0,4.7 -0.4,9.4 -1,13.9 h 19.6 v -6.1 H 383.3 V 373 h 10.3 v -6.1 h -10.3 v -4.7 h 12.1 v -6.1 h -19.6 c 0.6,4.6 1,9.3 1,14 z"
   id="path97" />
		<path
   class="st1"
   d="m 425.2,371.4 c 0.5,-0.4 1,-1 1.4,-1.6 0.4,-0.6 0.8,-1.3 1.1,-2.1 0.3,-0.8 0.4,-1.6 0.4,-2.6 0,-1.1 -0.2,-2.3 -0.6,-3.3 -0.4,-1.1 -1,-2 -1.8,-2.9 -0.8,-0.8 -1.8,-1.5 -3,-2 -1.2,-0.5 -2.5,-0.8 -4.1,-0.8 h -11.7 c 0.7,4.5 1,9.2 1,13.9 0,4.7 -0.4,9.4 -1,13.9 h 7.5 v -10.4 h 2.3 l 4.9,10.4 h 7.9 l -6,-11.6 c 0.6,-0.1 1.1,-0.5 1.7,-0.9 z m -4.7,-4.3 c -0.5,0.6 -1.3,0.9 -2.2,0.9 h -3.9 v -5.6 h 3.9 c 0.9,0 1.7,0.3 2.2,0.9 0.5,0.6 0.8,1.2 0.8,2 -0.1,0.5 -0.3,1.2 -0.8,1.8 z"
   id="path99" />
		<path
   class="st1"
   d="M 495.5,356.2 H 488 v 14 l -8.9,-14 h -6.7 c 0.7,4.5 1,9.2 1,13.9 0,4.7 -0.4,9.4 -1,13.9 h 7.5 v -14 l 8.9,14 h 6.7 c -0.7,-4.5 -1,-9.2 -1,-13.9 0,-4.7 0.4,-9.4 1,-13.9 z"
   id="path101" />
		<path
   class="st1"
   d="m 526.7,362.3 v -6.1 h -19.6 c 0.7,4.5 1,9.2 1,13.9 0,4.7 -0.4,9.4 -1,13.9 h 19.6 v -6.1 H 514.6 V 373 h 10.3 v -6.1 h -10.3 v -4.7 h 12.1 z"
   id="path103" />
	</g>
</g>
</svg>
